<?xml version="1.0" encoding="utf-8" standalone="no"?>
<!DOCTYPE svg PUBLIC "-//W3C//DTD SVG 1.1//EN"
  "http://www.w3.org/Graphics/SVG/1.1/DTD/svg11.dtd">
<svg xmlns:xlink="http://www.w3.org/1999/xlink" width="460.8pt" height="345.6pt" viewBox="0 0 460.8 345.6" xmlns="http://www.w3.org/2000/svg" version="1.1">
 <metadata>
  <rdf:RDF xmlns:dc="http://purl.org/dc/elements/1.1/" xmlns:cc="http://creativecommons.org/ns#" xmlns:rdf="http://www.w3.org/1999/02/22-rdf-syntax-ns#">
   <cc:Work>
    <dc:type rdf:resource="http://purl.org/dc/dcmitype/StillImage"/>
    <dc:date>2023-09-04T21:17:21.744463</dc:date>
    <dc:format>image/svg+xml</dc:format>
    <dc:creator>
     <cc:Agent>
      <dc:title>Matplotlib v3.7.2, https://matplotlib.org/</dc:title>
     </cc:Agent>
    </dc:creator>
   </cc:Work>
  </rdf:RDF>
 </metadata>
 <defs>
  <style type="text/css">*{stroke-linejoin: round; stroke-linecap: butt}</style>
 </defs>
 <g id="figure_1">
  <g id="patch_1">
   <path d="M 0 345.6 
L 460.8 345.6 
L 460.8 0 
L 0 0 
z
" style="fill: #ffffff"/>
  </g>
  <g id="axes_1">
   <g id="patch_2">
    <path d="M 57.6 307.584 
L 414.72 307.584 
L 414.72 41.472 
L 57.6 41.472 
z
" style="fill: #ffffff"/>
   </g>
   <g id="matplotlib.axis_1">
    <g id="xtick_1">
     <g id="line2d_1">
      <defs>
       <path id="m7c400af44d" d="M 0 0 
L 0 3.5 
" style="stroke: #000000; stroke-width: 0.8"/>
      </defs>
      <g>
       <use xlink:href="#m7c400af44d" x="73.832727" y="307.584" style="stroke: #000000; stroke-width: 0.8"/>
      </g>
     </g>
     <g id="text_1">
      <!-- 0 -->
      <g transform="translate(70.651477 322.182437) scale(0.1 -0.1)">
       <defs>
        <path id="DejaVuSans-30" d="M 2034 4250 
Q 1547 4250 1301 3770 
Q 1056 3291 1056 2328 
Q 1056 1369 1301 889 
Q 1547 409 2034 409 
Q 2525 409 2770 889 
Q 3016 1369 3016 2328 
Q 3016 3291 2770 3770 
Q 2525 4250 2034 4250 
z
M 2034 4750 
Q 2819 4750 3233 4129 
Q 3647 3509 3647 2328 
Q 3647 1150 3233 529 
Q 2819 -91 2034 -91 
Q 1250 -91 836 529 
Q 422 1150 422 2328 
Q 422 3509 836 4129 
Q 1250 4750 2034 4750 
z
" transform="scale(0.015625)"/>
       </defs>
       <use xlink:href="#DejaVuSans-30"/>
      </g>
     </g>
    </g>
    <g id="xtick_2">
     <g id="line2d_2">
      <g>
       <use xlink:href="#m7c400af44d" x="114.465336" y="307.584" style="stroke: #000000; stroke-width: 0.8"/>
      </g>
     </g>
     <g id="text_2">
      <!-- 100 -->
      <g transform="translate(104.921586 322.182437) scale(0.1 -0.1)">
       <defs>
        <path id="DejaVuSans-31" d="M 794 531 
L 1825 531 
L 1825 4091 
L 703 3866 
L 703 4441 
L 1819 4666 
L 2450 4666 
L 2450 531 
L 3481 531 
L 3481 0 
L 794 0 
L 794 531 
z
" transform="scale(0.015625)"/>
       </defs>
       <use xlink:href="#DejaVuSans-31"/>
       <use xlink:href="#DejaVuSans-30" x="63.623047"/>
       <use xlink:href="#DejaVuSans-30" x="127.246094"/>
      </g>
     </g>
    </g>
    <g id="xtick_3">
     <g id="line2d_3">
      <g>
       <use xlink:href="#m7c400af44d" x="155.097945" y="307.584" style="stroke: #000000; stroke-width: 0.8"/>
      </g>
     </g>
     <g id="text_3">
      <!-- 200 -->
      <g transform="translate(145.554195 322.182437) scale(0.1 -0.1)">
       <defs>
        <path id="DejaVuSans-32" d="M 1228 531 
L 3431 531 
L 3431 0 
L 469 0 
L 469 531 
Q 828 903 1448 1529 
Q 2069 2156 2228 2338 
Q 2531 2678 2651 2914 
Q 2772 3150 2772 3378 
Q 2772 3750 2511 3984 
Q 2250 4219 1831 4219 
Q 1534 4219 1204 4116 
Q 875 4013 500 3803 
L 500 4441 
Q 881 4594 1212 4672 
Q 1544 4750 1819 4750 
Q 2544 4750 2975 4387 
Q 3406 4025 3406 3419 
Q 3406 3131 3298 2873 
Q 3191 2616 2906 2266 
Q 2828 2175 2409 1742 
Q 1991 1309 1228 531 
z
" transform="scale(0.015625)"/>
       </defs>
       <use xlink:href="#DejaVuSans-32"/>
       <use xlink:href="#DejaVuSans-30" x="63.623047"/>
       <use xlink:href="#DejaVuSans-30" x="127.246094"/>
      </g>
     </g>
    </g>
    <g id="xtick_4">
     <g id="line2d_4">
      <g>
       <use xlink:href="#m7c400af44d" x="195.730554" y="307.584" style="stroke: #000000; stroke-width: 0.8"/>
      </g>
     </g>
     <g id="text_4">
      <!-- 300 -->
      <g transform="translate(186.186804 322.182437) scale(0.1 -0.1)">
       <defs>
        <path id="DejaVuSans-33" d="M 2597 2516 
Q 3050 2419 3304 2112 
Q 3559 1806 3559 1356 
Q 3559 666 3084 287 
Q 2609 -91 1734 -91 
Q 1441 -91 1130 -33 
Q 819 25 488 141 
L 488 750 
Q 750 597 1062 519 
Q 1375 441 1716 441 
Q 2309 441 2620 675 
Q 2931 909 2931 1356 
Q 2931 1769 2642 2001 
Q 2353 2234 1838 2234 
L 1294 2234 
L 1294 2753 
L 1863 2753 
Q 2328 2753 2575 2939 
Q 2822 3125 2822 3475 
Q 2822 3834 2567 4026 
Q 2313 4219 1838 4219 
Q 1578 4219 1281 4162 
Q 984 4106 628 3988 
L 628 4550 
Q 988 4650 1302 4700 
Q 1616 4750 1894 4750 
Q 2613 4750 3031 4423 
Q 3450 4097 3450 3541 
Q 3450 3153 3228 2886 
Q 3006 2619 2597 2516 
z
" transform="scale(0.015625)"/>
       </defs>
       <use xlink:href="#DejaVuSans-33"/>
       <use xlink:href="#DejaVuSans-30" x="63.623047"/>
       <use xlink:href="#DejaVuSans-30" x="127.246094"/>
      </g>
     </g>
    </g>
    <g id="xtick_5">
     <g id="line2d_5">
      <g>
       <use xlink:href="#m7c400af44d" x="236.363163" y="307.584" style="stroke: #000000; stroke-width: 0.8"/>
      </g>
     </g>
     <g id="text_5">
      <!-- 400 -->
      <g transform="translate(226.819413 322.182437) scale(0.1 -0.1)">
       <defs>
        <path id="DejaVuSans-34" d="M 2419 4116 
L 825 1625 
L 2419 1625 
L 2419 4116 
z
M 2253 4666 
L 3047 4666 
L 3047 1625 
L 3713 1625 
L 3713 1100 
L 3047 1100 
L 3047 0 
L 2419 0 
L 2419 1100 
L 313 1100 
L 313 1709 
L 2253 4666 
z
" transform="scale(0.015625)"/>
       </defs>
       <use xlink:href="#DejaVuSans-34"/>
       <use xlink:href="#DejaVuSans-30" x="63.623047"/>
       <use xlink:href="#DejaVuSans-30" x="127.246094"/>
      </g>
     </g>
    </g>
    <g id="xtick_6">
     <g id="line2d_6">
      <g>
       <use xlink:href="#m7c400af44d" x="276.995772" y="307.584" style="stroke: #000000; stroke-width: 0.8"/>
      </g>
     </g>
     <g id="text_6">
      <!-- 500 -->
      <g transform="translate(267.452022 322.182437) scale(0.1 -0.1)">
       <defs>
        <path id="DejaVuSans-35" d="M 691 4666 
L 3169 4666 
L 3169 4134 
L 1269 4134 
L 1269 2991 
Q 1406 3038 1543 3061 
Q 1681 3084 1819 3084 
Q 2600 3084 3056 2656 
Q 3513 2228 3513 1497 
Q 3513 744 3044 326 
Q 2575 -91 1722 -91 
Q 1428 -91 1123 -41 
Q 819 9 494 109 
L 494 744 
Q 775 591 1075 516 
Q 1375 441 1709 441 
Q 2250 441 2565 725 
Q 2881 1009 2881 1497 
Q 2881 1984 2565 2268 
Q 2250 2553 1709 2553 
Q 1456 2553 1204 2497 
Q 953 2441 691 2322 
L 691 4666 
z
" transform="scale(0.015625)"/>
       </defs>
       <use xlink:href="#DejaVuSans-35"/>
       <use xlink:href="#DejaVuSans-30" x="63.623047"/>
       <use xlink:href="#DejaVuSans-30" x="127.246094"/>
      </g>
     </g>
    </g>
    <g id="xtick_7">
     <g id="line2d_7">
      <g>
       <use xlink:href="#m7c400af44d" x="317.628381" y="307.584" style="stroke: #000000; stroke-width: 0.8"/>
      </g>
     </g>
     <g id="text_7">
      <!-- 600 -->
      <g transform="translate(308.084631 322.182437) scale(0.1 -0.1)">
       <defs>
        <path id="DejaVuSans-36" d="M 2113 2584 
Q 1688 2584 1439 2293 
Q 1191 2003 1191 1497 
Q 1191 994 1439 701 
Q 1688 409 2113 409 
Q 2538 409 2786 701 
Q 3034 994 3034 1497 
Q 3034 2003 2786 2293 
Q 2538 2584 2113 2584 
z
M 3366 4563 
L 3366 3988 
Q 3128 4100 2886 4159 
Q 2644 4219 2406 4219 
Q 1781 4219 1451 3797 
Q 1122 3375 1075 2522 
Q 1259 2794 1537 2939 
Q 1816 3084 2150 3084 
Q 2853 3084 3261 2657 
Q 3669 2231 3669 1497 
Q 3669 778 3244 343 
Q 2819 -91 2113 -91 
Q 1303 -91 875 529 
Q 447 1150 447 2328 
Q 447 3434 972 4092 
Q 1497 4750 2381 4750 
Q 2619 4750 2861 4703 
Q 3103 4656 3366 4563 
z
" transform="scale(0.015625)"/>
       </defs>
       <use xlink:href="#DejaVuSans-36"/>
       <use xlink:href="#DejaVuSans-30" x="63.623047"/>
       <use xlink:href="#DejaVuSans-30" x="127.246094"/>
      </g>
     </g>
    </g>
    <g id="xtick_8">
     <g id="line2d_8">
      <g>
       <use xlink:href="#m7c400af44d" x="358.26099" y="307.584" style="stroke: #000000; stroke-width: 0.8"/>
      </g>
     </g>
     <g id="text_8">
      <!-- 700 -->
      <g transform="translate(348.71724 322.182437) scale(0.1 -0.1)">
       <defs>
        <path id="DejaVuSans-37" d="M 525 4666 
L 3525 4666 
L 3525 4397 
L 1831 0 
L 1172 0 
L 2766 4134 
L 525 4134 
L 525 4666 
z
" transform="scale(0.015625)"/>
       </defs>
       <use xlink:href="#DejaVuSans-37"/>
       <use xlink:href="#DejaVuSans-30" x="63.623047"/>
       <use xlink:href="#DejaVuSans-30" x="127.246094"/>
      </g>
     </g>
    </g>
    <g id="xtick_9">
     <g id="line2d_9">
      <g>
       <use xlink:href="#m7c400af44d" x="398.893599" y="307.584" style="stroke: #000000; stroke-width: 0.8"/>
      </g>
     </g>
     <g id="text_9">
      <!-- 800 -->
      <g transform="translate(389.349849 322.182437) scale(0.1 -0.1)">
       <defs>
        <path id="DejaVuSans-38" d="M 2034 2216 
Q 1584 2216 1326 1975 
Q 1069 1734 1069 1313 
Q 1069 891 1326 650 
Q 1584 409 2034 409 
Q 2484 409 2743 651 
Q 3003 894 3003 1313 
Q 3003 1734 2745 1975 
Q 2488 2216 2034 2216 
z
M 1403 2484 
Q 997 2584 770 2862 
Q 544 3141 544 3541 
Q 544 4100 942 4425 
Q 1341 4750 2034 4750 
Q 2731 4750 3128 4425 
Q 3525 4100 3525 3541 
Q 3525 3141 3298 2862 
Q 3072 2584 2669 2484 
Q 3125 2378 3379 2068 
Q 3634 1759 3634 1313 
Q 3634 634 3220 271 
Q 2806 -91 2034 -91 
Q 1263 -91 848 271 
Q 434 634 434 1313 
Q 434 1759 690 2068 
Q 947 2378 1403 2484 
z
M 1172 3481 
Q 1172 3119 1398 2916 
Q 1625 2713 2034 2713 
Q 2441 2713 2670 2916 
Q 2900 3119 2900 3481 
Q 2900 3844 2670 4047 
Q 2441 4250 2034 4250 
Q 1625 4250 1398 4047 
Q 1172 3844 1172 3481 
z
" transform="scale(0.015625)"/>
       </defs>
       <use xlink:href="#DejaVuSans-38"/>
       <use xlink:href="#DejaVuSans-30" x="63.623047"/>
       <use xlink:href="#DejaVuSans-30" x="127.246094"/>
      </g>
     </g>
    </g>
    <g id="text_10">
     <!-- Packet Number -->
     <g transform="translate(198.131094 335.860562) scale(0.1 -0.1)">
      <defs>
       <path id="DejaVuSans-50" d="M 1259 4147 
L 1259 2394 
L 2053 2394 
Q 2494 2394 2734 2622 
Q 2975 2850 2975 3272 
Q 2975 3691 2734 3919 
Q 2494 4147 2053 4147 
L 1259 4147 
z
M 628 4666 
L 2053 4666 
Q 2838 4666 3239 4311 
Q 3641 3956 3641 3272 
Q 3641 2581 3239 2228 
Q 2838 1875 2053 1875 
L 1259 1875 
L 1259 0 
L 628 0 
L 628 4666 
z
" transform="scale(0.015625)"/>
       <path id="DejaVuSans-61" d="M 2194 1759 
Q 1497 1759 1228 1600 
Q 959 1441 959 1056 
Q 959 750 1161 570 
Q 1363 391 1709 391 
Q 2188 391 2477 730 
Q 2766 1069 2766 1631 
L 2766 1759 
L 2194 1759 
z
M 3341 1997 
L 3341 0 
L 2766 0 
L 2766 531 
Q 2569 213 2275 61 
Q 1981 -91 1556 -91 
Q 1019 -91 701 211 
Q 384 513 384 1019 
Q 384 1609 779 1909 
Q 1175 2209 1959 2209 
L 2766 2209 
L 2766 2266 
Q 2766 2663 2505 2880 
Q 2244 3097 1772 3097 
Q 1472 3097 1187 3025 
Q 903 2953 641 2809 
L 641 3341 
Q 956 3463 1253 3523 
Q 1550 3584 1831 3584 
Q 2591 3584 2966 3190 
Q 3341 2797 3341 1997 
z
" transform="scale(0.015625)"/>
       <path id="DejaVuSans-63" d="M 3122 3366 
L 3122 2828 
Q 2878 2963 2633 3030 
Q 2388 3097 2138 3097 
Q 1578 3097 1268 2742 
Q 959 2388 959 1747 
Q 959 1106 1268 751 
Q 1578 397 2138 397 
Q 2388 397 2633 464 
Q 2878 531 3122 666 
L 3122 134 
Q 2881 22 2623 -34 
Q 2366 -91 2075 -91 
Q 1284 -91 818 406 
Q 353 903 353 1747 
Q 353 2603 823 3093 
Q 1294 3584 2113 3584 
Q 2378 3584 2631 3529 
Q 2884 3475 3122 3366 
z
" transform="scale(0.015625)"/>
       <path id="DejaVuSans-6b" d="M 581 4863 
L 1159 4863 
L 1159 1991 
L 2875 3500 
L 3609 3500 
L 1753 1863 
L 3688 0 
L 2938 0 
L 1159 1709 
L 1159 0 
L 581 0 
L 581 4863 
z
" transform="scale(0.015625)"/>
       <path id="DejaVuSans-65" d="M 3597 1894 
L 3597 1613 
L 953 1613 
Q 991 1019 1311 708 
Q 1631 397 2203 397 
Q 2534 397 2845 478 
Q 3156 559 3463 722 
L 3463 178 
Q 3153 47 2828 -22 
Q 2503 -91 2169 -91 
Q 1331 -91 842 396 
Q 353 884 353 1716 
Q 353 2575 817 3079 
Q 1281 3584 2069 3584 
Q 2775 3584 3186 3129 
Q 3597 2675 3597 1894 
z
M 3022 2063 
Q 3016 2534 2758 2815 
Q 2500 3097 2075 3097 
Q 1594 3097 1305 2825 
Q 1016 2553 972 2059 
L 3022 2063 
z
" transform="scale(0.015625)"/>
       <path id="DejaVuSans-74" d="M 1172 4494 
L 1172 3500 
L 2356 3500 
L 2356 3053 
L 1172 3053 
L 1172 1153 
Q 1172 725 1289 603 
Q 1406 481 1766 481 
L 2356 481 
L 2356 0 
L 1766 0 
Q 1100 0 847 248 
Q 594 497 594 1153 
L 594 3053 
L 172 3053 
L 172 3500 
L 594 3500 
L 594 4494 
L 1172 4494 
z
" transform="scale(0.015625)"/>
       <path id="DejaVuSans-20" transform="scale(0.015625)"/>
       <path id="DejaVuSans-4e" d="M 628 4666 
L 1478 4666 
L 3547 763 
L 3547 4666 
L 4159 4666 
L 4159 0 
L 3309 0 
L 1241 3903 
L 1241 0 
L 628 0 
L 628 4666 
z
" transform="scale(0.015625)"/>
       <path id="DejaVuSans-75" d="M 544 1381 
L 544 3500 
L 1119 3500 
L 1119 1403 
Q 1119 906 1312 657 
Q 1506 409 1894 409 
Q 2359 409 2629 706 
Q 2900 1003 2900 1516 
L 2900 3500 
L 3475 3500 
L 3475 0 
L 2900 0 
L 2900 538 
Q 2691 219 2414 64 
Q 2138 -91 1772 -91 
Q 1169 -91 856 284 
Q 544 659 544 1381 
z
M 1991 3584 
L 1991 3584 
z
" transform="scale(0.015625)"/>
       <path id="DejaVuSans-6d" d="M 3328 2828 
Q 3544 3216 3844 3400 
Q 4144 3584 4550 3584 
Q 5097 3584 5394 3201 
Q 5691 2819 5691 2113 
L 5691 0 
L 5113 0 
L 5113 2094 
Q 5113 2597 4934 2840 
Q 4756 3084 4391 3084 
Q 3944 3084 3684 2787 
Q 3425 2491 3425 1978 
L 3425 0 
L 2847 0 
L 2847 2094 
Q 2847 2600 2669 2842 
Q 2491 3084 2119 3084 
Q 1678 3084 1418 2786 
Q 1159 2488 1159 1978 
L 1159 0 
L 581 0 
L 581 3500 
L 1159 3500 
L 1159 2956 
Q 1356 3278 1631 3431 
Q 1906 3584 2284 3584 
Q 2666 3584 2933 3390 
Q 3200 3197 3328 2828 
z
" transform="scale(0.015625)"/>
       <path id="DejaVuSans-62" d="M 3116 1747 
Q 3116 2381 2855 2742 
Q 2594 3103 2138 3103 
Q 1681 3103 1420 2742 
Q 1159 2381 1159 1747 
Q 1159 1113 1420 752 
Q 1681 391 2138 391 
Q 2594 391 2855 752 
Q 3116 1113 3116 1747 
z
M 1159 2969 
Q 1341 3281 1617 3432 
Q 1894 3584 2278 3584 
Q 2916 3584 3314 3078 
Q 3713 2572 3713 1747 
Q 3713 922 3314 415 
Q 2916 -91 2278 -91 
Q 1894 -91 1617 61 
Q 1341 213 1159 525 
L 1159 0 
L 581 0 
L 581 4863 
L 1159 4863 
L 1159 2969 
z
" transform="scale(0.015625)"/>
       <path id="DejaVuSans-72" d="M 2631 2963 
Q 2534 3019 2420 3045 
Q 2306 3072 2169 3072 
Q 1681 3072 1420 2755 
Q 1159 2438 1159 1844 
L 1159 0 
L 581 0 
L 581 3500 
L 1159 3500 
L 1159 2956 
Q 1341 3275 1631 3429 
Q 1922 3584 2338 3584 
Q 2397 3584 2469 3576 
Q 2541 3569 2628 3553 
L 2631 2963 
z
" transform="scale(0.015625)"/>
      </defs>
      <use xlink:href="#DejaVuSans-50"/>
      <use xlink:href="#DejaVuSans-61" x="55.802734"/>
      <use xlink:href="#DejaVuSans-63" x="117.082031"/>
      <use xlink:href="#DejaVuSans-6b" x="172.0625"/>
      <use xlink:href="#DejaVuSans-65" x="226.347656"/>
      <use xlink:href="#DejaVuSans-74" x="287.871094"/>
      <use xlink:href="#DejaVuSans-20" x="327.080078"/>
      <use xlink:href="#DejaVuSans-4e" x="358.867188"/>
      <use xlink:href="#DejaVuSans-75" x="433.671875"/>
      <use xlink:href="#DejaVuSans-6d" x="497.050781"/>
      <use xlink:href="#DejaVuSans-62" x="594.462891"/>
      <use xlink:href="#DejaVuSans-65" x="657.939453"/>
      <use xlink:href="#DejaVuSans-72" x="719.462891"/>
     </g>
    </g>
   </g>
   <g id="matplotlib.axis_2">
    <g id="ytick_1">
     <g id="line2d_10">
      <defs>
       <path id="me83e7500b4" d="M 0 0 
L -3.5 0 
" style="stroke: #000000; stroke-width: 0.8"/>
      </defs>
      <g>
       <use xlink:href="#me83e7500b4" x="57.6" y="307.584" style="stroke: #000000; stroke-width: 0.8"/>
      </g>
     </g>
     <g id="text_11">
      <!-- −75 -->
      <g transform="translate(29.495313 311.383219) scale(0.1 -0.1)">
       <defs>
        <path id="DejaVuSans-2212" d="M 678 2272 
L 4684 2272 
L 4684 1741 
L 678 1741 
L 678 2272 
z
" transform="scale(0.015625)"/>
       </defs>
       <use xlink:href="#DejaVuSans-2212"/>
       <use xlink:href="#DejaVuSans-37" x="83.789062"/>
       <use xlink:href="#DejaVuSans-35" x="147.412109"/>
      </g>
     </g>
    </g>
    <g id="ytick_2">
     <g id="line2d_11">
      <g>
       <use xlink:href="#me83e7500b4" x="57.6" y="278.016" style="stroke: #000000; stroke-width: 0.8"/>
      </g>
     </g>
     <g id="text_12">
      <!-- −70 -->
      <g transform="translate(29.495313 281.815219) scale(0.1 -0.1)">
       <use xlink:href="#DejaVuSans-2212"/>
       <use xlink:href="#DejaVuSans-37" x="83.789062"/>
       <use xlink:href="#DejaVuSans-30" x="147.412109"/>
      </g>
     </g>
    </g>
    <g id="ytick_3">
     <g id="line2d_12">
      <g>
       <use xlink:href="#me83e7500b4" x="57.6" y="248.448" style="stroke: #000000; stroke-width: 0.8"/>
      </g>
     </g>
     <g id="text_13">
      <!-- −65 -->
      <g transform="translate(29.495313 252.247219) scale(0.1 -0.1)">
       <use xlink:href="#DejaVuSans-2212"/>
       <use xlink:href="#DejaVuSans-36" x="83.789062"/>
       <use xlink:href="#DejaVuSans-35" x="147.412109"/>
      </g>
     </g>
    </g>
    <g id="ytick_4">
     <g id="line2d_13">
      <g>
       <use xlink:href="#me83e7500b4" x="57.6" y="218.88" style="stroke: #000000; stroke-width: 0.8"/>
      </g>
     </g>
     <g id="text_14">
      <!-- −60 -->
      <g transform="translate(29.495313 222.679219) scale(0.1 -0.1)">
       <use xlink:href="#DejaVuSans-2212"/>
       <use xlink:href="#DejaVuSans-36" x="83.789062"/>
       <use xlink:href="#DejaVuSans-30" x="147.412109"/>
      </g>
     </g>
    </g>
    <g id="ytick_5">
     <g id="line2d_14">
      <g>
       <use xlink:href="#me83e7500b4" x="57.6" y="189.312" style="stroke: #000000; stroke-width: 0.8"/>
      </g>
     </g>
     <g id="text_15">
      <!-- −55 -->
      <g transform="translate(29.495313 193.111219) scale(0.1 -0.1)">
       <use xlink:href="#DejaVuSans-2212"/>
       <use xlink:href="#DejaVuSans-35" x="83.789062"/>
       <use xlink:href="#DejaVuSans-35" x="147.412109"/>
      </g>
     </g>
    </g>
    <g id="ytick_6">
     <g id="line2d_15">
      <g>
       <use xlink:href="#me83e7500b4" x="57.6" y="159.744" style="stroke: #000000; stroke-width: 0.8"/>
      </g>
     </g>
     <g id="text_16">
      <!-- −50 -->
      <g transform="translate(29.495313 163.543219) scale(0.1 -0.1)">
       <use xlink:href="#DejaVuSans-2212"/>
       <use xlink:href="#DejaVuSans-35" x="83.789062"/>
       <use xlink:href="#DejaVuSans-30" x="147.412109"/>
      </g>
     </g>
    </g>
    <g id="ytick_7">
     <g id="line2d_16">
      <g>
       <use xlink:href="#me83e7500b4" x="57.6" y="130.176" style="stroke: #000000; stroke-width: 0.8"/>
      </g>
     </g>
     <g id="text_17">
      <!-- −45 -->
      <g transform="translate(29.495313 133.975219) scale(0.1 -0.1)">
       <use xlink:href="#DejaVuSans-2212"/>
       <use xlink:href="#DejaVuSans-34" x="83.789062"/>
       <use xlink:href="#DejaVuSans-35" x="147.412109"/>
      </g>
     </g>
    </g>
    <g id="ytick_8">
     <g id="line2d_17">
      <g>
       <use xlink:href="#me83e7500b4" x="57.6" y="100.608" style="stroke: #000000; stroke-width: 0.8"/>
      </g>
     </g>
     <g id="text_18">
      <!-- −40 -->
      <g transform="translate(29.495313 104.407219) scale(0.1 -0.1)">
       <use xlink:href="#DejaVuSans-2212"/>
       <use xlink:href="#DejaVuSans-34" x="83.789062"/>
       <use xlink:href="#DejaVuSans-30" x="147.412109"/>
      </g>
     </g>
    </g>
    <g id="ytick_9">
     <g id="line2d_18">
      <g>
       <use xlink:href="#me83e7500b4" x="57.6" y="71.04" style="stroke: #000000; stroke-width: 0.8"/>
      </g>
     </g>
     <g id="text_19">
      <!-- −35 -->
      <g transform="translate(29.495313 74.839219) scale(0.1 -0.1)">
       <use xlink:href="#DejaVuSans-2212"/>
       <use xlink:href="#DejaVuSans-33" x="83.789062"/>
       <use xlink:href="#DejaVuSans-35" x="147.412109"/>
      </g>
     </g>
    </g>
    <g id="ytick_10">
     <g id="line2d_19">
      <g>
       <use xlink:href="#me83e7500b4" x="57.6" y="41.472" style="stroke: #000000; stroke-width: 0.8"/>
      </g>
     </g>
     <g id="text_20">
      <!-- −30 -->
      <g transform="translate(29.495313 45.271219) scale(0.1 -0.1)">
       <use xlink:href="#DejaVuSans-2212"/>
       <use xlink:href="#DejaVuSans-33" x="83.789062"/>
       <use xlink:href="#DejaVuSans-30" x="147.412109"/>
      </g>
     </g>
    </g>
    <g id="text_21">
     <!-- RSSI(dBm) -->
     <g transform="translate(23.415625 201.202219) rotate(-90) scale(0.1 -0.1)">
      <defs>
       <path id="DejaVuSans-52" d="M 2841 2188 
Q 3044 2119 3236 1894 
Q 3428 1669 3622 1275 
L 4263 0 
L 3584 0 
L 2988 1197 
Q 2756 1666 2539 1819 
Q 2322 1972 1947 1972 
L 1259 1972 
L 1259 0 
L 628 0 
L 628 4666 
L 2053 4666 
Q 2853 4666 3247 4331 
Q 3641 3997 3641 3322 
Q 3641 2881 3436 2590 
Q 3231 2300 2841 2188 
z
M 1259 4147 
L 1259 2491 
L 2053 2491 
Q 2509 2491 2742 2702 
Q 2975 2913 2975 3322 
Q 2975 3731 2742 3939 
Q 2509 4147 2053 4147 
L 1259 4147 
z
" transform="scale(0.015625)"/>
       <path id="DejaVuSans-53" d="M 3425 4513 
L 3425 3897 
Q 3066 4069 2747 4153 
Q 2428 4238 2131 4238 
Q 1616 4238 1336 4038 
Q 1056 3838 1056 3469 
Q 1056 3159 1242 3001 
Q 1428 2844 1947 2747 
L 2328 2669 
Q 3034 2534 3370 2195 
Q 3706 1856 3706 1288 
Q 3706 609 3251 259 
Q 2797 -91 1919 -91 
Q 1588 -91 1214 -16 
Q 841 59 441 206 
L 441 856 
Q 825 641 1194 531 
Q 1563 422 1919 422 
Q 2459 422 2753 634 
Q 3047 847 3047 1241 
Q 3047 1584 2836 1778 
Q 2625 1972 2144 2069 
L 1759 2144 
Q 1053 2284 737 2584 
Q 422 2884 422 3419 
Q 422 4038 858 4394 
Q 1294 4750 2059 4750 
Q 2388 4750 2728 4690 
Q 3069 4631 3425 4513 
z
" transform="scale(0.015625)"/>
       <path id="DejaVuSans-49" d="M 628 4666 
L 1259 4666 
L 1259 0 
L 628 0 
L 628 4666 
z
" transform="scale(0.015625)"/>
       <path id="DejaVuSans-28" d="M 1984 4856 
Q 1566 4138 1362 3434 
Q 1159 2731 1159 2009 
Q 1159 1288 1364 580 
Q 1569 -128 1984 -844 
L 1484 -844 
Q 1016 -109 783 600 
Q 550 1309 550 2009 
Q 550 2706 781 3412 
Q 1013 4119 1484 4856 
L 1984 4856 
z
" transform="scale(0.015625)"/>
       <path id="DejaVuSans-64" d="M 2906 2969 
L 2906 4863 
L 3481 4863 
L 3481 0 
L 2906 0 
L 2906 525 
Q 2725 213 2448 61 
Q 2172 -91 1784 -91 
Q 1150 -91 751 415 
Q 353 922 353 1747 
Q 353 2572 751 3078 
Q 1150 3584 1784 3584 
Q 2172 3584 2448 3432 
Q 2725 3281 2906 2969 
z
M 947 1747 
Q 947 1113 1208 752 
Q 1469 391 1925 391 
Q 2381 391 2643 752 
Q 2906 1113 2906 1747 
Q 2906 2381 2643 2742 
Q 2381 3103 1925 3103 
Q 1469 3103 1208 2742 
Q 947 2381 947 1747 
z
" transform="scale(0.015625)"/>
       <path id="DejaVuSans-42" d="M 1259 2228 
L 1259 519 
L 2272 519 
Q 2781 519 3026 730 
Q 3272 941 3272 1375 
Q 3272 1813 3026 2020 
Q 2781 2228 2272 2228 
L 1259 2228 
z
M 1259 4147 
L 1259 2741 
L 2194 2741 
Q 2656 2741 2882 2914 
Q 3109 3088 3109 3444 
Q 3109 3797 2882 3972 
Q 2656 4147 2194 4147 
L 1259 4147 
z
M 628 4666 
L 2241 4666 
Q 2963 4666 3353 4366 
Q 3744 4066 3744 3513 
Q 3744 3084 3544 2831 
Q 3344 2578 2956 2516 
Q 3422 2416 3680 2098 
Q 3938 1781 3938 1306 
Q 3938 681 3513 340 
Q 3088 0 2303 0 
L 628 0 
L 628 4666 
z
" transform="scale(0.015625)"/>
       <path id="DejaVuSans-29" d="M 513 4856 
L 1013 4856 
Q 1481 4119 1714 3412 
Q 1947 2706 1947 2009 
Q 1947 1309 1714 600 
Q 1481 -109 1013 -844 
L 513 -844 
Q 928 -128 1133 580 
Q 1338 1288 1338 2009 
Q 1338 2731 1133 3434 
Q 928 4138 513 4856 
z
" transform="scale(0.015625)"/>
      </defs>
      <use xlink:href="#DejaVuSans-52"/>
      <use xlink:href="#DejaVuSans-53" x="69.482422"/>
      <use xlink:href="#DejaVuSans-53" x="132.958984"/>
      <use xlink:href="#DejaVuSans-49" x="196.435547"/>
      <use xlink:href="#DejaVuSans-28" x="225.927734"/>
      <use xlink:href="#DejaVuSans-64" x="264.941406"/>
      <use xlink:href="#DejaVuSans-42" x="328.417969"/>
      <use xlink:href="#DejaVuSans-6d" x="397.021484"/>
      <use xlink:href="#DejaVuSans-29" x="494.433594"/>
     </g>
    </g>
   </g>
   <g id="line2d_20">
    <path d="M 73.832727 177.4848 
L 74.645379 165.6576 
L 75.458032 177.4848 
L 76.270684 177.4848 
L 76.67701 171.5712 
L 77.083336 171.5712 
L 77.895988 183.3984 
L 78.302314 177.4848 
L 79.114966 189.312 
L 79.521293 183.3984 
L 79.927619 195.2256 
L 80.333945 195.2256 
L 80.740271 189.312 
L 81.146597 195.2256 
L 81.552923 189.312 
L 82.771901 189.312 
L 83.584553 201.1392 
L 83.99088 201.1392 
L 84.397206 207.0528 
L 85.209858 207.0528 
L 85.616184 195.2256 
L 86.835162 195.2256 
L 87.241488 189.312 
L 88.05414 189.312 
L 88.460466 195.2256 
L 90.085771 195.2256 
L 90.492097 189.312 
L 90.898423 195.2256 
L 91.304749 189.312 
L 91.711075 195.2256 
L 92.117401 189.312 
L 92.930053 189.312 
L 93.33638 195.2256 
L 94.149032 195.2256 
L 94.555358 201.1392 
L 95.774336 201.1392 
L 96.180662 195.2256 
L 96.586988 195.2256 
L 96.993314 201.1392 
L 98.618619 201.1392 
L 99.431271 189.312 
L 100.243923 189.312 
L 100.650249 195.2256 
L 101.056575 189.312 
L 101.462901 195.2256 
L 101.869227 195.2256 
L 102.275554 189.312 
L 102.68188 195.2256 
L 103.088206 189.312 
L 103.900858 201.1392 
L 104.307184 201.1392 
L 104.71351 207.0528 
L 105.119836 207.0528 
L 105.526162 201.1392 
L 105.932488 207.0528 
L 106.338814 207.0528 
L 106.745141 201.1392 
L 107.557793 201.1392 
L 107.964119 207.0528 
L 108.776771 207.0528 
L 109.183097 201.1392 
L 109.589423 201.1392 
L 109.995749 207.0528 
L 111.214728 189.312 
L 111.621054 195.2256 
L 112.840032 195.2256 
L 113.246358 189.312 
L 113.652684 195.2256 
L 114.05901 207.0528 
L 114.465336 201.1392 
L 114.871662 207.0528 
L 115.277988 201.1392 
L 115.684314 207.0528 
L 116.090641 207.0528 
L 116.496967 201.1392 
L 116.903293 201.1392 
L 117.309619 207.0528 
L 117.715945 207.0528 
L 118.122271 201.1392 
L 118.528597 201.1392 
L 118.934923 207.0528 
L 119.341249 207.0528 
L 119.747575 201.1392 
L 120.560228 201.1392 
L 120.966554 207.0528 
L 121.779206 207.0528 
L 122.185532 201.1392 
L 122.591858 201.1392 
L 123.40451 189.312 
L 123.810836 195.2256 
L 126.655119 195.2256 
L 127.061445 189.312 
L 127.467771 195.2256 
L 127.874097 195.2256 
L 128.280423 189.312 
L 128.686749 195.2256 
L 129.093075 189.312 
L 129.905728 189.312 
L 130.312054 195.2256 
L 130.71838 189.312 
L 131.124706 195.2256 
L 131.531032 195.2256 
L 131.937358 201.1392 
L 132.343684 195.2256 
L 132.75001 195.2256 
L 133.156336 189.312 
L 133.968989 201.1392 
L 134.781641 201.1392 
L 135.187967 207.0528 
L 136.000619 195.2256 
L 136.406945 201.1392 
L 136.813271 195.2256 
L 137.625923 195.2256 
L 138.032249 189.312 
L 138.438575 201.1392 
L 138.844902 195.2256 
L 142.908162 195.2256 
L 143.314489 201.1392 
L 143.720815 195.2256 
L 144.127141 201.1392 
L 144.533467 195.2256 
L 144.939793 195.2256 
L 145.346119 201.1392 
L 145.752445 201.1392 
L 146.158771 195.2256 
L 146.565097 201.1392 
L 146.971423 201.1392 
L 147.377749 195.2256 
L 148.190402 195.2256 
L 148.596728 201.1392 
L 149.003054 195.2256 
L 150.628358 195.2256 
L 151.034684 189.312 
L 151.44101 189.312 
L 151.847336 195.2256 
L 152.659989 183.3984 
L 153.066315 189.312 
L 153.878967 189.312 
L 154.285293 195.2256 
L 154.691619 189.312 
L 155.097945 207.0528 
L 155.504271 201.1392 
L 155.910597 201.1392 
L 156.316923 207.0528 
L 156.72325 201.1392 
L 157.129576 201.1392 
L 157.535902 195.2256 
L 157.942228 201.1392 
L 158.348554 195.2256 
L 158.75488 207.0528 
L 159.161206 207.0528 
L 159.567532 201.1392 
L 159.973858 207.0528 
L 160.380184 201.1392 
L 160.78651 201.1392 
L 161.192837 195.2256 
L 161.599163 201.1392 
L 162.411815 189.312 
L 163.630793 189.312 
L 164.037119 195.2256 
L 164.443445 189.312 
L 164.849771 195.2256 
L 165.256097 207.0528 
L 165.662423 207.0528 
L 166.06875 201.1392 
L 166.475076 201.1392 
L 166.881402 195.2256 
L 167.287728 207.0528 
L 167.694054 195.2256 
L 168.10038 195.2256 
L 168.913032 207.0528 
L 169.319358 195.2256 
L 170.13201 207.0528 
L 171.757315 207.0528 
L 172.163641 201.1392 
L 172.569967 201.1392 
L 172.976293 207.0528 
L 173.382619 201.1392 
L 173.788945 207.0528 
L 174.601597 207.0528 
L 175.007924 201.1392 
L 175.41425 207.0528 
L 175.820576 171.5712 
L 176.633228 171.5712 
L 177.039554 183.3984 
L 177.44588 171.5712 
L 177.852206 183.3984 
L 178.258532 177.4848 
L 178.664858 177.4848 
L 179.071184 183.3984 
L 179.477511 183.3984 
L 179.883837 171.5712 
L 180.290163 183.3984 
L 180.696489 177.4848 
L 181.509141 177.4848 
L 181.915467 183.3984 
L 182.321793 171.5712 
L 182.728119 177.4848 
L 183.134445 171.5712 
L 183.540771 171.5712 
L 183.947098 165.6576 
L 184.353424 183.3984 
L 185.166076 171.5712 
L 186.385054 171.5712 
L 186.79138 177.4848 
L 187.604032 165.6576 
L 188.010358 177.4848 
L 188.416684 171.5712 
L 188.823011 171.5712 
L 189.229337 159.744 
L 189.635663 165.6576 
L 190.041989 177.4848 
L 190.448315 171.5712 
L 190.854641 159.744 
L 191.260967 153.8304 
L 191.667293 159.744 
L 192.073619 171.5712 
L 192.886271 159.744 
L 193.698924 171.5712 
L 194.511576 159.744 
L 195.730554 159.744 
L 196.13688 171.5712 
L 196.543206 171.5712 
L 196.949532 165.6576 
L 197.355858 153.8304 
L 197.762185 165.6576 
L 198.168511 153.8304 
L 198.574837 171.5712 
L 198.981163 165.6576 
L 199.387489 177.4848 
L 201.012793 177.4848 
L 202.231772 159.744 
L 202.638098 171.5712 
L 203.044424 159.744 
L 203.45075 159.744 
L 203.857076 165.6576 
L 204.263402 153.8304 
L 205.076054 165.6576 
L 205.48238 159.744 
L 205.888706 165.6576 
L 206.295032 159.744 
L 206.701359 165.6576 
L 207.107685 159.744 
L 207.514011 159.744 
L 207.920337 165.6576 
L 208.326663 159.744 
L 208.732989 165.6576 
L 209.139315 165.6576 
L 209.545641 153.8304 
L 209.951967 153.8304 
L 210.764619 177.4848 
L 211.170946 171.5712 
L 211.577272 171.5712 
L 211.983598 165.6576 
L 212.389924 177.4848 
L 213.202576 177.4848 
L 213.608902 165.6576 
L 214.015228 165.6576 
L 214.421554 171.5712 
L 214.82788 159.744 
L 215.234206 159.744 
L 215.640532 165.6576 
L 216.046859 159.744 
L 216.859511 159.744 
L 217.265837 165.6576 
L 218.484815 165.6576 
L 218.891141 171.5712 
L 219.297467 171.5712 
L 219.703793 159.744 
L 220.110119 165.6576 
L 220.516446 159.744 
L 220.922772 171.5712 
L 221.735424 171.5712 
L 222.14175 165.6576 
L 222.548076 171.5712 
L 222.954402 159.744 
L 223.360728 171.5712 
L 223.767054 171.5712 
L 224.17338 177.4848 
L 224.986033 177.4848 
L 225.392359 171.5712 
L 225.798685 177.4848 
L 226.205011 177.4848 
L 226.611337 171.5712 
L 227.017663 177.4848 
L 227.830315 177.4848 
L 228.236641 159.744 
L 228.642967 165.6576 
L 229.049293 159.744 
L 229.45562 171.5712 
L 229.861946 165.6576 
L 230.268272 171.5712 
L 230.674598 171.5712 
L 231.080924 159.744 
L 231.893576 159.744 
L 232.299902 165.6576 
L 232.706228 159.744 
L 233.51888 159.744 
L 233.925207 171.5712 
L 234.331533 171.5712 
L 234.737859 177.4848 
L 235.144185 177.4848 
L 235.550511 165.6576 
L 236.363163 165.6576 
L 236.769489 177.4848 
L 237.175815 177.4848 
L 237.988467 165.6576 
L 238.394793 165.6576 
L 239.207446 177.4848 
L 239.613772 165.6576 
L 240.020098 171.5712 
L 240.426424 171.5712 
L 240.83275 165.6576 
L 241.239076 177.4848 
L 241.645402 165.6576 
L 242.051728 171.5712 
L 242.458054 159.744 
L 243.270707 159.744 
L 243.677033 171.5712 
L 244.083359 159.744 
L 244.489685 159.744 
L 244.896011 177.4848 
L 245.302337 183.3984 
L 245.708663 171.5712 
L 246.114989 165.6576 
L 246.521315 177.4848 
L 246.927641 177.4848 
L 247.333967 165.6576 
L 247.740294 171.5712 
L 249.771924 171.5712 
L 250.17825 165.6576 
L 250.990902 177.4848 
L 251.397228 165.6576 
L 251.803554 177.4848 
L 252.209881 165.6576 
L 252.616207 177.4848 
L 253.428859 177.4848 
L 253.835185 171.5712 
L 254.241511 177.4848 
L 254.647837 165.6576 
L 255.054163 171.5712 
L 255.460489 165.6576 
L 255.866815 165.6576 
L 256.273141 171.5712 
L 256.679468 171.5712 
L 257.085794 177.4848 
L 257.898446 165.6576 
L 258.304772 171.5712 
L 258.711098 165.6576 
L 259.117424 171.5712 
L 259.52375 165.6576 
L 260.336402 165.6576 
L 260.742728 177.4848 
L 261.149054 165.6576 
L 261.555381 165.6576 
L 261.961707 177.4848 
L 262.774359 177.4848 
L 263.180685 165.6576 
L 264.399663 165.6576 
L 264.805989 183.3984 
L 265.212315 177.4848 
L 265.618641 183.3984 
L 266.024968 171.5712 
L 266.431294 171.5712 
L 266.83762 159.744 
L 267.243946 159.744 
L 267.650272 171.5712 
L 268.056598 159.744 
L 268.462924 171.5712 
L 269.275576 171.5712 
L 270.088228 159.744 
L 270.494555 159.744 
L 270.900881 171.5712 
L 271.713533 159.744 
L 272.119859 171.5712 
L 272.526185 171.5712 
L 272.932511 165.6576 
L 273.338837 171.5712 
L 273.745163 165.6576 
L 274.151489 171.5712 
L 274.557815 165.6576 
L 274.964142 171.5712 
L 275.370468 159.744 
L 275.776794 159.744 
L 276.18312 171.5712 
L 276.589446 171.5712 
L 276.995772 195.2256 
L 277.808424 195.2256 
L 278.21475 189.312 
L 278.621076 189.312 
L 279.027402 195.2256 
L 279.433729 195.2256 
L 279.840055 189.312 
L 280.246381 195.2256 
L 280.652707 189.312 
L 281.059033 195.2256 
L 281.871685 195.2256 
L 282.278011 189.312 
L 282.684337 189.312 
L 283.090663 195.2256 
L 283.903316 195.2256 
L 284.309642 189.312 
L 284.715968 189.312 
L 285.122294 195.2256 
L 285.52862 195.2256 
L 285.934946 189.312 
L 287.153924 189.312 
L 287.56025 195.2256 
L 288.372902 195.2256 
L 288.779229 189.312 
L 291.217185 189.312 
L 291.623511 195.2256 
L 292.029837 195.2256 
L 292.436163 189.312 
L 292.842489 195.2256 
L 293.248816 189.312 
L 293.655142 195.2256 
L 294.061468 189.312 
L 294.467794 195.2256 
L 294.87412 189.312 
L 296.093098 189.312 
L 296.499424 195.2256 
L 296.90575 189.312 
L 297.312076 195.2256 
L 297.718403 189.312 
L 298.531055 189.312 
L 298.937381 195.2256 
L 299.343707 195.2256 
L 299.750033 189.312 
L 300.156359 195.2256 
L 300.562685 195.2256 
L 300.969011 189.312 
L 301.375337 189.312 
L 301.781663 195.2256 
L 302.594316 195.2256 
L 303.000642 201.1392 
L 303.406968 201.1392 
L 303.813294 195.2256 
L 304.21962 195.2256 
L 304.625946 189.312 
L 305.032272 195.2256 
L 305.438598 189.312 
L 305.844924 195.2256 
L 306.25125 195.2256 
L 306.657577 189.312 
L 307.876555 189.312 
L 308.282881 195.2256 
L 308.689207 183.3984 
L 309.095533 183.3984 
L 309.501859 195.2256 
L 310.314511 195.2256 
L 310.720837 201.1392 
L 311.127163 201.1392 
L 311.53349 195.2256 
L 311.939816 207.0528 
L 312.346142 201.1392 
L 312.752468 201.1392 
L 313.158794 207.0528 
L 313.56512 201.1392 
L 313.971446 207.0528 
L 314.377772 207.0528 
L 314.784098 201.1392 
L 315.190424 201.1392 
L 315.59675 195.2256 
L 316.003077 195.2256 
L 316.409403 183.3984 
L 316.815729 195.2256 
L 317.222055 201.1392 
L 317.628381 195.2256 
L 318.441033 195.2256 
L 318.847359 201.1392 
L 319.253685 201.1392 
L 319.660011 195.2256 
L 320.472664 207.0528 
L 320.87899 195.2256 
L 321.285316 201.1392 
L 321.691642 195.2256 
L 322.504294 195.2256 
L 322.91062 201.1392 
L 323.316946 201.1392 
L 323.723272 195.2256 
L 324.535924 207.0528 
L 325.348577 195.2256 
L 325.754903 195.2256 
L 326.161229 201.1392 
L 328.192859 201.1392 
L 328.599185 195.2256 
L 329.005511 195.2256 
L 329.411838 189.312 
L 329.818164 195.2256 
L 330.22449 195.2256 
L 330.630816 189.312 
L 331.443468 189.312 
L 331.849794 195.2256 
L 332.25612 195.2256 
L 332.662446 189.312 
L 333.068772 195.2256 
L 333.475098 189.312 
L 336.319381 189.312 
L 336.725707 195.2256 
L 337.132033 189.312 
L 337.538359 195.2256 
L 337.944685 189.312 
L 338.351011 195.2256 
L 338.757338 189.312 
L 339.976316 189.312 
L 340.382642 195.2256 
L 340.788968 189.312 
L 341.195294 195.2256 
L 341.60162 189.312 
L 342.007946 195.2256 
L 344.445903 195.2256 
L 344.852229 189.312 
L 345.258555 189.312 
L 345.664881 195.2256 
L 346.477533 195.2256 
L 346.883859 189.312 
L 348.509164 189.312 
L 348.91549 195.2256 
L 350.540794 195.2256 
L 350.94712 189.312 
L 351.353446 189.312 
L 351.759772 195.2256 
L 352.166099 189.312 
L 352.572425 195.2256 
L 352.978751 195.2256 
L 353.385077 189.312 
L 354.197729 189.312 
L 354.604055 195.2256 
L 355.010381 195.2256 
L 355.416707 189.312 
L 356.635686 189.312 
L 357.042012 195.2256 
L 357.448338 195.2256 
L 357.854664 189.312 
L 358.667316 189.312 
L 359.073642 195.2256 
L 359.479968 189.312 
L 359.886294 189.312 
L 360.29262 195.2256 
L 360.698946 189.312 
L 361.105272 189.312 
L 361.511599 195.2256 
L 362.324251 195.2256 
L 362.730577 189.312 
L 363.136903 195.2256 
L 363.949555 195.2256 
L 364.355881 189.312 
L 364.762207 195.2256 
L 365.168533 195.2256 
L 365.574859 189.312 
L 367.200164 189.312 
L 367.60649 195.2256 
L 368.419142 195.2256 
L 368.825468 189.312 
L 369.231794 195.2256 
L 369.63812 195.2256 
L 370.044446 189.312 
L 370.450773 195.2256 
L 370.857099 189.312 
L 371.263425 195.2256 
L 371.669751 189.312 
L 372.076077 195.2256 
L 372.482403 189.312 
L 373.295055 189.312 
L 373.701381 195.2256 
L 374.514033 195.2256 
L 374.92036 189.312 
L 375.733012 189.312 
L 376.139338 195.2256 
L 377.358316 195.2256 
L 377.764642 189.312 
L 378.577294 189.312 
L 379.389947 201.1392 
L 380.202599 189.312 
L 380.608925 195.2256 
L 381.015251 195.2256 
L 381.421577 201.1392 
L 382.640555 201.1392 
L 383.046881 195.2256 
L 383.453207 201.1392 
L 383.859534 201.1392 
L 384.26586 189.312 
L 386.703816 189.312 
L 387.110142 201.1392 
L 387.516468 189.312 
L 388.32912 201.1392 
L 388.735447 189.312 
L 389.141773 189.312 
L 389.548099 183.3984 
L 389.954425 189.312 
L 390.360751 189.312 
L 390.767077 195.2256 
L 391.173403 189.312 
L 391.579729 218.88 
L 392.392381 207.0528 
L 392.798707 195.2256 
L 393.205034 195.2256 
L 393.61136 189.312 
L 394.017686 195.2256 
L 394.424012 189.312 
L 394.830338 195.2256 
L 395.236664 189.312 
L 395.64299 195.2256 
L 396.049316 195.2256 
L 396.455642 189.312 
L 398.487273 189.312 
L 398.487273 189.312 
" clip-path="url(#p7035878294)" style="fill: none; stroke: #0000ff; stroke-width: 1.5; stroke-linecap: square"/>
   </g>
   <g id="line2d_21">
    <path d="M 73.832727 165.6576 
L 74.239053 153.8304 
L 74.645379 165.6576 
L 75.458032 165.6576 
L 75.864358 159.744 
L 76.270684 159.744 
L 76.67701 171.5712 
L 77.083336 171.5712 
L 77.895988 159.744 
L 78.302314 177.4848 
L 78.70864 189.312 
L 79.114966 171.5712 
L 79.927619 171.5712 
L 80.333945 165.6576 
L 80.740271 171.5712 
L 81.146597 171.5712 
L 81.552923 165.6576 
L 81.959249 177.4848 
L 82.771901 177.4848 
L 83.178227 183.3984 
L 83.584553 171.5712 
L 83.99088 171.5712 
L 84.397206 165.6576 
L 84.803532 171.5712 
L 85.209858 183.3984 
L 85.616184 177.4848 
L 86.02251 177.4848 
L 86.835162 165.6576 
L 87.241488 171.5712 
L 87.647814 165.6576 
L 88.05414 177.4848 
L 88.460466 165.6576 
L 89.679445 165.6576 
L 90.085771 171.5712 
L 90.492097 165.6576 
L 90.898423 171.5712 
L 91.711075 171.5712 
L 92.117401 177.4848 
L 93.742706 177.4848 
L 94.149032 171.5712 
L 94.555358 177.4848 
L 94.961684 171.5712 
L 95.36801 171.5712 
L 95.774336 177.4848 
L 96.180662 165.6576 
L 96.586988 177.4848 
L 96.993314 171.5712 
L 97.39964 177.4848 
L 97.805967 171.5712 
L 98.618619 171.5712 
L 99.024945 165.6576 
L 99.431271 171.5712 
L 99.837597 165.6576 
L 100.243923 165.6576 
L 100.650249 171.5712 
L 101.056575 165.6576 
L 101.462901 171.5712 
L 103.088206 171.5712 
L 103.494532 165.6576 
L 103.900858 171.5712 
L 104.307184 171.5712 
L 104.71351 165.6576 
L 105.119836 171.5712 
L 105.526162 165.6576 
L 105.932488 171.5712 
L 106.338814 165.6576 
L 107.557793 165.6576 
L 107.964119 171.5712 
L 109.183097 171.5712 
L 109.589423 165.6576 
L 109.995749 171.5712 
L 110.402075 171.5712 
L 110.808401 165.6576 
L 111.214728 171.5712 
L 111.621054 165.6576 
L 112.433706 165.6576 
L 112.840032 177.4848 
L 113.246358 177.4848 
L 113.652684 171.5712 
L 115.277988 171.5712 
L 115.684314 177.4848 
L 116.496967 177.4848 
L 116.903293 171.5712 
L 117.309619 177.4848 
L 118.122271 177.4848 
L 118.528597 171.5712 
L 120.153901 171.5712 
L 120.560228 165.6576 
L 121.37288 165.6576 
L 122.185532 177.4848 
L 122.591858 177.4848 
L 123.40451 165.6576 
L 124.217162 165.6576 
L 124.623488 177.4848 
L 125.436141 165.6576 
L 125.842467 171.5712 
L 126.248793 165.6576 
L 126.655119 171.5712 
L 127.467771 171.5712 
L 127.874097 165.6576 
L 128.280423 171.5712 
L 128.686749 171.5712 
L 129.093075 165.6576 
L 129.905728 177.4848 
L 130.312054 165.6576 
L 130.71838 165.6576 
L 131.124706 171.5712 
L 131.531032 165.6576 
L 131.937358 171.5712 
L 133.156336 171.5712 
L 133.562662 177.4848 
L 133.968989 171.5712 
L 134.375315 177.4848 
L 136.406945 177.4848 
L 136.813271 171.5712 
L 137.219597 171.5712 
L 137.625923 177.4848 
L 138.032249 177.4848 
L 138.438575 165.6576 
L 138.844902 177.4848 
L 139.251228 165.6576 
L 139.657554 177.4848 
L 140.06388 171.5712 
L 140.470206 171.5712 
L 140.876532 165.6576 
L 141.282858 171.5712 
L 141.689184 171.5712 
L 142.09551 177.4848 
L 142.501836 171.5712 
L 142.908162 177.4848 
L 143.314489 177.4848 
L 143.720815 171.5712 
L 146.565097 171.5712 
L 146.971423 177.4848 
L 147.377749 177.4848 
L 147.784076 171.5712 
L 148.190402 177.4848 
L 148.596728 171.5712 
L 149.003054 177.4848 
L 149.815706 165.6576 
L 150.222032 177.4848 
L 150.628358 171.5712 
L 151.034684 171.5712 
L 151.44101 177.4848 
L 151.847336 177.4848 
L 152.253663 165.6576 
L 152.659989 165.6576 
L 153.066315 171.5712 
L 155.097945 171.5712 
L 155.504271 177.4848 
L 155.910597 171.5712 
L 156.72325 171.5712 
L 157.129576 177.4848 
L 157.535902 165.6576 
L 157.942228 165.6576 
L 158.348554 171.5712 
L 159.161206 171.5712 
L 159.567532 177.4848 
L 160.380184 177.4848 
L 160.78651 171.5712 
L 161.192837 177.4848 
L 161.599163 171.5712 
L 162.411815 171.5712 
L 162.818141 165.6576 
L 164.037119 165.6576 
L 164.443445 171.5712 
L 166.06875 171.5712 
L 166.475076 177.4848 
L 166.881402 171.5712 
L 167.287728 171.5712 
L 167.694054 177.4848 
L 168.10038 177.4848 
L 168.506706 171.5712 
L 169.319358 171.5712 
L 169.725684 177.4848 
L 170.538337 177.4848 
L 170.944663 171.5712 
L 171.350989 177.4848 
L 171.757315 177.4848 
L 172.163641 171.5712 
L 174.195271 171.5712 
L 174.601597 177.4848 
L 175.007924 177.4848 
L 175.41425 171.5712 
L 175.820576 159.744 
L 176.226902 159.744 
L 176.633228 165.6576 
L 177.039554 153.8304 
L 177.44588 165.6576 
L 177.852206 165.6576 
L 178.258532 159.744 
L 179.883837 159.744 
L 180.290163 165.6576 
L 180.696489 159.744 
L 181.102815 165.6576 
L 181.509141 159.744 
L 181.915467 165.6576 
L 182.321793 165.6576 
L 182.728119 159.744 
L 183.134445 165.6576 
L 183.540771 165.6576 
L 183.947098 159.744 
L 184.353424 159.744 
L 184.75975 153.8304 
L 185.166076 153.8304 
L 185.572402 165.6576 
L 185.978728 153.8304 
L 187.197706 153.8304 
L 188.010358 165.6576 
L 188.416684 147.9168 
L 188.823011 165.6576 
L 189.229337 147.9168 
L 189.635663 159.744 
L 190.041989 165.6576 
L 190.448315 153.8304 
L 190.854641 159.744 
L 191.260967 153.8304 
L 192.073619 165.6576 
L 192.479945 153.8304 
L 192.886271 159.744 
L 193.292598 159.744 
L 193.698924 165.6576 
L 194.10525 165.6576 
L 194.511576 159.744 
L 194.917902 159.744 
L 195.324228 165.6576 
L 195.730554 159.744 
L 196.13688 165.6576 
L 196.949532 153.8304 
L 197.355858 165.6576 
L 198.168511 153.8304 
L 198.981163 153.8304 
L 199.387489 147.9168 
L 200.200141 147.9168 
L 200.606467 153.8304 
L 201.012793 153.8304 
L 201.419119 165.6576 
L 202.231772 153.8304 
L 202.638098 153.8304 
L 203.044424 159.744 
L 203.45075 159.744 
L 203.857076 165.6576 
L 204.263402 159.744 
L 204.669728 165.6576 
L 205.076054 159.744 
L 205.48238 165.6576 
L 205.888706 153.8304 
L 206.295032 159.744 
L 206.701359 159.744 
L 207.107685 153.8304 
L 207.514011 153.8304 
L 207.920337 165.6576 
L 208.326663 153.8304 
L 209.139315 165.6576 
L 209.545641 165.6576 
L 210.358293 153.8304 
L 210.764619 159.744 
L 211.170946 153.8304 
L 211.577272 159.744 
L 211.983598 153.8304 
L 212.79625 165.6576 
L 213.202576 165.6576 
L 213.608902 159.744 
L 215.234206 159.744 
L 215.640532 153.8304 
L 216.046859 165.6576 
L 216.859511 153.8304 
L 217.265837 159.744 
L 218.078489 159.744 
L 218.484815 165.6576 
L 218.891141 153.8304 
L 219.297467 159.744 
L 219.703793 153.8304 
L 220.110119 165.6576 
L 220.516446 153.8304 
L 220.922772 159.744 
L 221.329098 159.744 
L 221.735424 153.8304 
L 222.14175 153.8304 
L 222.548076 159.744 
L 222.954402 153.8304 
L 223.360728 159.744 
L 224.17338 159.744 
L 224.579706 153.8304 
L 224.986033 165.6576 
L 225.392359 153.8304 
L 225.798685 153.8304 
L 226.205011 165.6576 
L 226.611337 153.8304 
L 227.423989 165.6576 
L 227.830315 153.8304 
L 228.236641 159.744 
L 229.45562 159.744 
L 229.861946 153.8304 
L 230.268272 159.744 
L 230.674598 147.9168 
L 231.080924 147.9168 
L 231.893576 159.744 
L 232.299902 153.8304 
L 232.706228 153.8304 
L 233.112554 159.744 
L 233.51888 171.5712 
L 233.925207 171.5712 
L 234.331533 159.744 
L 234.737859 159.744 
L 235.144185 165.6576 
L 235.956837 165.6576 
L 236.363163 159.744 
L 236.769489 159.744 
L 237.175815 165.6576 
L 237.988467 165.6576 
L 238.394793 159.744 
L 238.80112 159.744 
L 239.207446 171.5712 
L 239.613772 165.6576 
L 240.020098 171.5712 
L 240.83275 147.9168 
L 241.239076 147.9168 
L 241.645402 159.744 
L 242.051728 159.744 
L 242.458054 153.8304 
L 242.86438 153.8304 
L 243.270707 159.744 
L 243.677033 142.0032 
L 244.083359 159.744 
L 244.489685 159.744 
L 244.896011 165.6576 
L 245.302337 153.8304 
L 245.708663 171.5712 
L 246.114989 153.8304 
L 246.521315 153.8304 
L 246.927641 165.6576 
L 247.333967 153.8304 
L 248.552946 153.8304 
L 248.959272 159.744 
L 249.771924 159.744 
L 250.17825 165.6576 
L 250.584576 165.6576 
L 251.397228 153.8304 
L 251.803554 165.6576 
L 252.209881 165.6576 
L 252.616207 159.744 
L 254.241511 159.744 
L 254.647837 153.8304 
L 255.460489 165.6576 
L 255.866815 165.6576 
L 256.679468 153.8304 
L 257.085794 165.6576 
L 257.49212 165.6576 
L 257.898446 153.8304 
L 258.304772 165.6576 
L 258.711098 153.8304 
L 259.117424 165.6576 
L 259.930076 153.8304 
L 260.336402 165.6576 
L 260.742728 159.744 
L 261.149054 165.6576 
L 261.555381 153.8304 
L 262.368033 153.8304 
L 262.774359 165.6576 
L 263.587011 165.6576 
L 264.399663 153.8304 
L 264.805989 165.6576 
L 265.212315 165.6576 
L 265.618641 153.8304 
L 266.024968 153.8304 
L 266.431294 159.744 
L 266.83762 159.744 
L 267.243946 153.8304 
L 267.650272 159.744 
L 268.056598 153.8304 
L 268.462924 153.8304 
L 268.86925 159.744 
L 269.275576 159.744 
L 269.681902 153.8304 
L 270.088228 159.744 
L 270.494555 159.744 
L 270.900881 165.6576 
L 271.307207 165.6576 
L 271.713533 153.8304 
L 272.119859 159.744 
L 272.932511 159.744 
L 273.338837 153.8304 
L 273.745163 165.6576 
L 274.557815 153.8304 
L 274.964142 153.8304 
L 275.370468 165.6576 
L 275.776794 159.744 
L 276.18312 159.744 
L 276.589446 165.6576 
L 276.995772 177.4848 
L 277.402098 171.5712 
L 279.027402 171.5712 
L 279.433729 177.4848 
L 279.840055 165.6576 
L 280.652707 177.4848 
L 281.059033 171.5712 
L 281.465359 177.4848 
L 282.278011 177.4848 
L 282.684337 171.5712 
L 283.496989 171.5712 
L 283.903316 177.4848 
L 284.715968 165.6576 
L 285.122294 171.5712 
L 285.52862 171.5712 
L 285.934946 177.4848 
L 287.153924 177.4848 
L 287.56025 165.6576 
L 287.966576 177.4848 
L 289.185555 177.4848 
L 289.591881 171.5712 
L 289.998207 171.5712 
L 290.404533 177.4848 
L 290.810859 177.4848 
L 291.217185 171.5712 
L 292.029837 171.5712 
L 292.436163 177.4848 
L 293.248816 165.6576 
L 293.655142 171.5712 
L 296.093098 171.5712 
L 296.499424 177.4848 
L 296.90575 171.5712 
L 299.750033 171.5712 
L 300.156359 177.4848 
L 300.562685 171.5712 
L 300.969011 177.4848 
L 301.375337 171.5712 
L 301.781663 177.4848 
L 302.18799 171.5712 
L 302.594316 177.4848 
L 303.000642 177.4848 
L 303.406968 171.5712 
L 303.813294 171.5712 
L 304.21962 183.3984 
L 304.625946 171.5712 
L 305.032272 171.5712 
L 305.438598 177.4848 
L 305.844924 171.5712 
L 306.25125 171.5712 
L 306.657577 177.4848 
L 307.063903 171.5712 
L 307.470229 177.4848 
L 307.876555 171.5712 
L 308.282881 171.5712 
L 308.689207 177.4848 
L 309.095533 177.4848 
L 309.501859 171.5712 
L 309.908185 177.4848 
L 310.314511 171.5712 
L 310.720837 177.4848 
L 311.127163 177.4848 
L 311.53349 171.5712 
L 311.939816 171.5712 
L 312.346142 177.4848 
L 312.752468 171.5712 
L 313.158794 171.5712 
L 313.56512 177.4848 
L 313.971446 171.5712 
L 314.377772 177.4848 
L 316.815729 177.4848 
L 317.222055 171.5712 
L 317.628381 177.4848 
L 318.034707 171.5712 
L 318.441033 177.4848 
L 319.253685 177.4848 
L 319.660011 171.5712 
L 320.066337 171.5712 
L 320.472664 177.4848 
L 320.87899 171.5712 
L 321.285316 171.5712 
L 321.691642 177.4848 
L 322.097968 171.5712 
L 322.91062 171.5712 
L 323.316946 177.4848 
L 324.942251 177.4848 
L 325.348577 171.5712 
L 326.161229 171.5712 
L 326.567555 177.4848 
L 328.192859 177.4848 
L 328.599185 171.5712 
L 329.005511 177.4848 
L 329.411838 171.5712 
L 330.630816 171.5712 
L 331.037142 177.4848 
L 331.849794 177.4848 
L 332.25612 171.5712 
L 332.662446 177.4848 
L 333.068772 177.4848 
L 333.475098 165.6576 
L 333.881425 177.4848 
L 334.287751 171.5712 
L 335.100403 171.5712 
L 335.506729 177.4848 
L 335.913055 171.5712 
L 336.319381 177.4848 
L 336.725707 177.4848 
L 337.132033 171.5712 
L 337.538359 177.4848 
L 338.757338 177.4848 
L 339.163664 171.5712 
L 339.56999 177.4848 
L 340.382642 177.4848 
L 340.788968 171.5712 
L 341.195294 171.5712 
L 341.60162 177.4848 
L 342.007946 177.4848 
L 342.414272 171.5712 
L 342.820598 177.4848 
L 343.226925 171.5712 
L 344.445903 171.5712 
L 344.852229 177.4848 
L 345.258555 171.5712 
L 345.664881 177.4848 
L 346.071207 171.5712 
L 346.477533 177.4848 
L 346.883859 171.5712 
L 348.509164 171.5712 
L 348.91549 177.4848 
L 349.321816 171.5712 
L 349.728142 177.4848 
L 350.134468 171.5712 
L 350.540794 171.5712 
L 350.94712 177.4848 
L 351.353446 171.5712 
L 352.166099 171.5712 
L 352.572425 177.4848 
L 352.978751 171.5712 
L 353.385077 177.4848 
L 354.604055 177.4848 
L 355.010381 171.5712 
L 355.416707 171.5712 
L 355.823033 177.4848 
L 356.229359 177.4848 
L 356.635686 171.5712 
L 357.042012 177.4848 
L 357.448338 171.5712 
L 357.854664 171.5712 
L 358.26099 177.4848 
L 358.667316 177.4848 
L 359.073642 171.5712 
L 359.479968 177.4848 
L 359.886294 171.5712 
L 360.29262 177.4848 
L 361.105272 177.4848 
L 361.917925 165.6576 
L 362.324251 171.5712 
L 362.730577 165.6576 
L 364.355881 165.6576 
L 364.762207 177.4848 
L 365.168533 171.5712 
L 365.574859 177.4848 
L 365.981186 171.5712 
L 366.387512 177.4848 
L 366.793838 177.4848 
L 367.200164 171.5712 
L 367.60649 177.4848 
L 368.012816 171.5712 
L 368.419142 177.4848 
L 368.825468 177.4848 
L 369.231794 171.5712 
L 370.044446 171.5712 
L 370.450773 177.4848 
L 371.263425 177.4848 
L 371.669751 171.5712 
L 372.076077 177.4848 
L 372.482403 177.4848 
L 372.888729 171.5712 
L 373.295055 171.5712 
L 373.701381 183.3984 
L 374.107707 183.3984 
L 374.514033 171.5712 
L 374.92036 177.4848 
L 375.733012 177.4848 
L 376.139338 171.5712 
L 376.545664 177.4848 
L 376.95199 171.5712 
L 377.358316 177.4848 
L 378.98362 177.4848 
L 379.389947 171.5712 
L 381.421577 171.5712 
L 381.827903 177.4848 
L 382.234229 159.744 
L 382.640555 177.4848 
L 383.046881 165.6576 
L 383.859534 177.4848 
L 384.26586 165.6576 
L 384.672186 165.6576 
L 385.078512 177.4848 
L 385.484838 171.5712 
L 385.891164 171.5712 
L 386.29749 183.3984 
L 386.703816 171.5712 
L 387.110142 177.4848 
L 387.516468 165.6576 
L 387.922794 177.4848 
L 388.32912 165.6576 
L 388.735447 171.5712 
L 389.141773 159.744 
L 389.548099 171.5712 
L 389.954425 165.6576 
L 390.767077 177.4848 
L 391.173403 177.4848 
L 391.579729 171.5712 
L 391.986055 177.4848 
L 392.392381 165.6576 
L 392.798707 177.4848 
L 393.205034 171.5712 
L 395.236664 171.5712 
L 395.64299 165.6576 
L 396.049316 165.6576 
L 396.455642 177.4848 
L 396.861968 165.6576 
L 397.674621 165.6576 
L 398.080947 171.5712 
L 398.487273 171.5712 
L 398.487273 171.5712 
" clip-path="url(#p7035878294)" style="fill: none; stroke: #008000; stroke-width: 1.5; stroke-linecap: square"/>
   </g>
   <g id="line2d_22">
    <path d="M 73.832727 124.2624 
L 74.645379 159.744 
L 75.051706 147.9168 
L 75.864358 147.9168 
L 76.67701 136.0896 
L 77.083336 136.0896 
L 77.489662 130.176 
L 77.895988 142.0032 
L 78.302314 136.0896 
L 78.70864 142.0032 
L 79.114966 136.0896 
L 80.740271 136.0896 
L 81.146597 142.0032 
L 81.959249 142.0032 
L 82.365575 136.0896 
L 83.178227 147.9168 
L 83.584553 142.0032 
L 83.99088 147.9168 
L 84.397206 142.0032 
L 84.803532 142.0032 
L 85.209858 147.9168 
L 85.616184 142.0032 
L 86.02251 142.0032 
L 86.428836 147.9168 
L 86.835162 142.0032 
L 87.647814 142.0032 
L 88.05414 136.0896 
L 88.460466 142.0032 
L 88.866793 142.0032 
L 89.273119 136.0896 
L 90.085771 136.0896 
L 90.492097 142.0032 
L 90.898423 136.0896 
L 92.523727 136.0896 
L 92.930053 142.0032 
L 94.149032 142.0032 
L 94.555358 147.9168 
L 94.961684 147.9168 
L 95.36801 142.0032 
L 95.774336 147.9168 
L 96.993314 147.9168 
L 97.39964 142.0032 
L 97.805967 142.0032 
L 98.212293 147.9168 
L 98.618619 142.0032 
L 100.243923 142.0032 
L 100.650249 136.0896 
L 101.869227 136.0896 
L 102.275554 142.0032 
L 102.68188 136.0896 
L 103.494532 136.0896 
L 103.900858 142.0032 
L 104.307184 136.0896 
L 104.71351 147.9168 
L 105.119836 147.9168 
L 105.526162 142.0032 
L 105.932488 147.9168 
L 106.338814 147.9168 
L 106.745141 142.0032 
L 107.151467 147.9168 
L 107.557793 142.0032 
L 107.964119 147.9168 
L 108.370445 142.0032 
L 108.776771 142.0032 
L 109.183097 147.9168 
L 109.589423 142.0032 
L 110.402075 142.0032 
L 110.808401 147.9168 
L 111.621054 136.0896 
L 112.433706 136.0896 
L 112.840032 142.0032 
L 113.246358 136.0896 
L 113.652684 142.0032 
L 114.05901 136.0896 
L 114.465336 136.0896 
L 115.277988 147.9168 
L 115.684314 142.0032 
L 116.090641 142.0032 
L 116.496967 147.9168 
L 116.903293 142.0032 
L 117.309619 142.0032 
L 117.715945 147.9168 
L 118.122271 147.9168 
L 118.528597 142.0032 
L 118.934923 147.9168 
L 119.341249 142.0032 
L 120.966554 142.0032 
L 121.37288 147.9168 
L 121.779206 147.9168 
L 122.185532 142.0032 
L 124.217162 142.0032 
L 124.623488 136.0896 
L 125.436141 136.0896 
L 125.842467 142.0032 
L 126.248793 136.0896 
L 126.655119 136.0896 
L 127.061445 142.0032 
L 129.905728 142.0032 
L 130.312054 136.0896 
L 130.71838 136.0896 
L 131.124706 142.0032 
L 131.531032 136.0896 
L 131.937358 142.0032 
L 132.343684 142.0032 
L 132.75001 136.0896 
L 133.156336 142.0032 
L 133.562662 142.0032 
L 133.968989 136.0896 
L 134.781641 136.0896 
L 135.187967 142.0032 
L 137.219597 142.0032 
L 137.625923 136.0896 
L 138.032249 142.0032 
L 139.251228 142.0032 
L 139.657554 136.0896 
L 140.06388 136.0896 
L 140.470206 142.0032 
L 140.876532 142.0032 
L 141.282858 136.0896 
L 141.689184 142.0032 
L 142.09551 136.0896 
L 142.501836 136.0896 
L 142.908162 142.0032 
L 143.314489 136.0896 
L 143.720815 136.0896 
L 144.127141 142.0032 
L 144.533467 142.0032 
L 144.939793 147.9168 
L 145.346119 142.0032 
L 145.752445 147.9168 
L 146.158771 147.9168 
L 146.565097 142.0032 
L 146.971423 147.9168 
L 147.377749 142.0032 
L 147.784076 142.0032 
L 148.190402 147.9168 
L 148.596728 147.9168 
L 149.003054 142.0032 
L 149.40938 142.0032 
L 149.815706 136.0896 
L 150.222032 136.0896 
L 150.628358 142.0032 
L 151.034684 136.0896 
L 151.44101 136.0896 
L 151.847336 142.0032 
L 152.253663 142.0032 
L 152.659989 136.0896 
L 154.691619 136.0896 
L 155.097945 142.0032 
L 155.504271 142.0032 
L 155.910597 147.9168 
L 156.316923 147.9168 
L 156.72325 142.0032 
L 157.129576 147.9168 
L 157.535902 147.9168 
L 157.942228 142.0032 
L 158.75488 142.0032 
L 159.161206 147.9168 
L 159.973858 147.9168 
L 160.380184 142.0032 
L 162.005489 142.0032 
L 162.411815 147.9168 
L 162.818141 147.9168 
L 163.630793 136.0896 
L 164.037119 136.0896 
L 164.443445 142.0032 
L 164.849771 136.0896 
L 165.256097 136.0896 
L 165.662423 142.0032 
L 166.475076 142.0032 
L 166.881402 147.9168 
L 167.287728 147.9168 
L 167.694054 142.0032 
L 168.10038 147.9168 
L 168.506706 142.0032 
L 168.913032 147.9168 
L 169.319358 142.0032 
L 169.725684 142.0032 
L 170.13201 147.9168 
L 170.538337 142.0032 
L 170.944663 147.9168 
L 171.350989 142.0032 
L 171.757315 147.9168 
L 172.163641 142.0032 
L 172.976293 142.0032 
L 173.382619 147.9168 
L 174.195271 147.9168 
L 174.601597 142.0032 
L 175.007924 147.9168 
L 175.41425 142.0032 
L 175.820576 100.608 
L 176.226902 94.6944 
L 177.039554 94.6944 
L 177.44588 112.4352 
L 177.852206 88.7808 
L 178.258532 94.6944 
L 178.664858 94.6944 
L 179.071184 100.608 
L 179.477511 112.4352 
L 180.290163 112.4352 
L 180.696489 94.6944 
L 181.102815 112.4352 
L 181.915467 112.4352 
L 182.321793 94.6944 
L 183.540771 94.6944 
L 183.947098 112.4352 
L 184.353424 100.608 
L 184.75975 106.5216 
L 185.166076 100.608 
L 185.978728 100.608 
L 186.385054 94.6944 
L 187.197706 106.5216 
L 187.604032 106.5216 
L 188.010358 112.4352 
L 188.823011 100.608 
L 189.635663 112.4352 
L 190.041989 100.608 
L 190.448315 94.6944 
L 190.854641 94.6944 
L 191.260967 88.7808 
L 191.667293 100.608 
L 192.073619 106.5216 
L 192.479945 94.6944 
L 193.292598 106.5216 
L 193.698924 100.608 
L 195.324228 100.608 
L 195.730554 94.6944 
L 196.13688 106.5216 
L 196.543206 100.608 
L 196.949532 88.7808 
L 197.355858 100.608 
L 197.762185 88.7808 
L 198.168511 88.7808 
L 198.574837 94.6944 
L 198.981163 106.5216 
L 199.387489 106.5216 
L 199.793815 88.7808 
L 200.200141 88.7808 
L 200.606467 106.5216 
L 201.012793 88.7808 
L 201.419119 106.5216 
L 202.231772 106.5216 
L 202.638098 94.6944 
L 203.044424 94.6944 
L 203.45075 106.5216 
L 203.857076 94.6944 
L 204.263402 100.608 
L 205.076054 100.608 
L 205.48238 106.5216 
L 205.888706 88.7808 
L 206.295032 88.7808 
L 206.701359 106.5216 
L 207.107685 88.7808 
L 207.514011 100.608 
L 207.920337 106.5216 
L 208.326663 88.7808 
L 208.732989 100.608 
L 209.139315 88.7808 
L 209.545641 88.7808 
L 209.951967 100.608 
L 210.764619 100.608 
L 211.170946 106.5216 
L 211.577272 106.5216 
L 211.983598 94.6944 
L 212.389924 106.5216 
L 212.79625 112.4352 
L 213.202576 100.608 
L 213.608902 94.6944 
L 214.015228 106.5216 
L 214.421554 106.5216 
L 214.82788 100.608 
L 215.234206 112.4352 
L 215.640532 100.608 
L 216.046859 100.608 
L 216.453185 88.7808 
L 216.859511 94.6944 
L 217.265837 88.7808 
L 217.672163 94.6944 
L 218.078489 94.6944 
L 218.484815 88.7808 
L 218.891141 100.608 
L 219.297467 106.5216 
L 219.703793 106.5216 
L 220.110119 88.7808 
L 220.516446 94.6944 
L 220.922772 88.7808 
L 221.329098 88.7808 
L 221.735424 106.5216 
L 222.14175 88.7808 
L 222.954402 100.608 
L 223.360728 100.608 
L 223.767054 94.6944 
L 224.17338 100.608 
L 224.579706 112.4352 
L 224.986033 94.6944 
L 225.392359 106.5216 
L 226.205011 94.6944 
L 227.017663 106.5216 
L 227.423989 106.5216 
L 227.830315 100.608 
L 228.236641 112.4352 
L 228.642967 106.5216 
L 229.049293 106.5216 
L 229.45562 94.6944 
L 229.861946 94.6944 
L 230.268272 106.5216 
L 230.674598 94.6944 
L 231.893576 94.6944 
L 232.299902 106.5216 
L 232.706228 94.6944 
L 233.112554 106.5216 
L 233.51888 94.6944 
L 233.925207 88.7808 
L 234.331533 88.7808 
L 234.737859 106.5216 
L 235.144185 106.5216 
L 235.550511 94.6944 
L 235.956837 112.4352 
L 236.363163 112.4352 
L 236.769489 94.6944 
L 237.175815 106.5216 
L 237.582141 112.4352 
L 237.988467 112.4352 
L 238.394793 106.5216 
L 239.207446 106.5216 
L 239.613772 112.4352 
L 240.020098 112.4352 
L 240.426424 106.5216 
L 240.83275 94.6944 
L 241.239076 112.4352 
L 242.051728 88.7808 
L 242.458054 88.7808 
L 242.86438 100.608 
L 243.677033 88.7808 
L 244.083359 106.5216 
L 244.489685 88.7808 
L 244.896011 106.5216 
L 245.302337 100.608 
L 246.114989 100.608 
L 246.927641 112.4352 
L 247.333967 100.608 
L 247.740294 100.608 
L 248.14662 94.6944 
L 248.552946 106.5216 
L 248.959272 112.4352 
L 249.365598 112.4352 
L 249.771924 100.608 
L 250.17825 106.5216 
L 250.990902 94.6944 
L 251.397228 100.608 
L 251.803554 100.608 
L 252.209881 94.6944 
L 252.616207 100.608 
L 253.022533 94.6944 
L 253.428859 106.5216 
L 253.835185 94.6944 
L 254.241511 94.6944 
L 254.647837 106.5216 
L 255.054163 100.608 
L 255.460489 106.5216 
L 255.866815 106.5216 
L 256.273141 100.608 
L 256.679468 100.608 
L 257.085794 94.6944 
L 257.49212 100.608 
L 257.898446 112.4352 
L 258.304772 118.3488 
L 259.117424 106.5216 
L 259.52375 112.4352 
L 259.930076 100.608 
L 260.336402 100.608 
L 260.742728 112.4352 
L 261.149054 94.6944 
L 261.555381 112.4352 
L 262.368033 112.4352 
L 262.774359 100.608 
L 263.180685 106.5216 
L 263.587011 106.5216 
L 263.993337 112.4352 
L 264.399663 100.608 
L 264.805989 106.5216 
L 265.212315 100.608 
L 265.618641 106.5216 
L 266.024968 118.3488 
L 266.431294 100.608 
L 267.650272 100.608 
L 268.056598 94.6944 
L 268.462924 100.608 
L 268.86925 88.7808 
L 269.275576 94.6944 
L 269.681902 106.5216 
L 270.088228 94.6944 
L 270.900881 106.5216 
L 271.307207 94.6944 
L 271.713533 88.7808 
L 272.119859 88.7808 
L 272.526185 94.6944 
L 272.932511 88.7808 
L 273.338837 94.6944 
L 274.557815 94.6944 
L 274.964142 106.5216 
L 275.370468 94.6944 
L 275.776794 88.7808 
L 276.18312 100.608 
L 276.589446 100.608 
L 276.995772 142.0032 
L 277.402098 136.0896 
L 278.21475 136.0896 
L 278.621076 153.8304 
L 279.027402 136.0896 
L 279.433729 142.0032 
L 281.465359 142.0032 
L 281.871685 136.0896 
L 282.278011 136.0896 
L 282.684337 142.0032 
L 283.090663 136.0896 
L 284.309642 136.0896 
L 284.715968 142.0032 
L 285.934946 142.0032 
L 286.341272 136.0896 
L 286.747598 136.0896 
L 287.153924 142.0032 
L 287.56025 142.0032 
L 287.966576 136.0896 
L 288.372902 142.0032 
L 288.779229 136.0896 
L 289.185555 136.0896 
L 289.591881 142.0032 
L 289.998207 142.0032 
L 290.404533 147.9168 
L 291.217185 147.9168 
L 291.623511 142.0032 
L 292.029837 142.0032 
L 292.436163 136.0896 
L 292.842489 136.0896 
L 293.248816 142.0032 
L 293.655142 136.0896 
L 294.061468 142.0032 
L 294.467794 136.0896 
L 295.686772 136.0896 
L 296.093098 142.0032 
L 296.499424 136.0896 
L 296.90575 136.0896 
L 297.312076 142.0032 
L 297.718403 136.0896 
L 299.343707 136.0896 
L 299.750033 142.0032 
L 300.562685 142.0032 
L 300.969011 147.9168 
L 301.375337 142.0032 
L 301.781663 142.0032 
L 302.18799 147.9168 
L 303.406968 147.9168 
L 304.21962 136.0896 
L 304.625946 142.0032 
L 305.032272 142.0032 
L 305.438598 136.0896 
L 305.844924 142.0032 
L 306.25125 136.0896 
L 306.657577 142.0032 
L 307.063903 142.0032 
L 307.470229 136.0896 
L 307.876555 142.0032 
L 308.282881 136.0896 
L 309.095533 147.9168 
L 309.501859 142.0032 
L 309.908185 147.9168 
L 311.127163 147.9168 
L 311.53349 142.0032 
L 311.939816 153.8304 
L 312.346142 142.0032 
L 312.752468 147.9168 
L 313.158794 142.0032 
L 313.56512 142.0032 
L 313.971446 147.9168 
L 314.377772 142.0032 
L 315.190424 142.0032 
L 315.59675 147.9168 
L 316.003077 136.0896 
L 316.815729 147.9168 
L 317.628381 147.9168 
L 318.034707 142.0032 
L 318.441033 142.0032 
L 318.847359 147.9168 
L 319.253685 147.9168 
L 319.660011 142.0032 
L 320.066337 147.9168 
L 320.472664 147.9168 
L 320.87899 142.0032 
L 322.91062 142.0032 
L 323.316946 147.9168 
L 323.723272 142.0032 
L 324.942251 142.0032 
L 325.348577 147.9168 
L 325.754903 142.0032 
L 326.161229 147.9168 
L 326.567555 142.0032 
L 327.786533 142.0032 
L 328.192859 136.0896 
L 329.818164 136.0896 
L 330.22449 142.0032 
L 331.443468 142.0032 
L 331.849794 136.0896 
L 332.25612 142.0032 
L 332.662446 136.0896 
L 333.475098 136.0896 
L 333.881425 142.0032 
L 334.287751 142.0032 
L 334.694077 136.0896 
L 335.100403 142.0032 
L 335.913055 142.0032 
L 336.319381 136.0896 
L 336.725707 142.0032 
L 337.132033 136.0896 
L 337.538359 142.0032 
L 337.944685 142.0032 
L 338.351011 136.0896 
L 338.757338 142.0032 
L 339.163664 136.0896 
L 339.56999 136.0896 
L 339.976316 142.0032 
L 340.382642 136.0896 
L 341.195294 136.0896 
L 341.60162 142.0032 
L 342.007946 136.0896 
L 342.414272 142.0032 
L 342.820598 142.0032 
L 343.226925 147.9168 
L 343.633251 142.0032 
L 344.445903 142.0032 
L 344.852229 136.0896 
L 345.258555 136.0896 
L 345.664881 142.0032 
L 346.071207 136.0896 
L 347.696512 136.0896 
L 348.102838 142.0032 
L 348.509164 142.0032 
L 348.91549 136.0896 
L 349.321816 142.0032 
L 349.728142 142.0032 
L 350.134468 136.0896 
L 350.540794 142.0032 
L 350.94712 142.0032 
L 351.353446 136.0896 
L 351.759772 142.0032 
L 352.166099 136.0896 
L 352.572425 142.0032 
L 352.978751 136.0896 
L 353.385077 136.0896 
L 353.791403 142.0032 
L 354.197729 136.0896 
L 354.604055 142.0032 
L 355.010381 136.0896 
L 355.416707 142.0032 
L 356.635686 142.0032 
L 357.042012 136.0896 
L 357.854664 136.0896 
L 358.26099 142.0032 
L 358.667316 136.0896 
L 359.073642 142.0032 
L 359.479968 136.0896 
L 360.29262 136.0896 
L 360.698946 142.0032 
L 361.511599 142.0032 
L 361.917925 136.0896 
L 362.730577 147.9168 
L 363.136903 142.0032 
L 363.949555 142.0032 
L 364.355881 136.0896 
L 364.762207 142.0032 
L 365.168533 142.0032 
L 365.574859 136.0896 
L 365.981186 142.0032 
L 366.387512 136.0896 
L 367.200164 136.0896 
L 367.60649 142.0032 
L 368.012816 142.0032 
L 368.419142 136.0896 
L 368.825468 142.0032 
L 369.231794 142.0032 
L 369.63812 136.0896 
L 370.044446 142.0032 
L 371.263425 142.0032 
L 371.669751 136.0896 
L 372.076077 142.0032 
L 372.482403 136.0896 
L 372.888729 142.0032 
L 373.295055 136.0896 
L 374.107707 136.0896 
L 374.514033 142.0032 
L 374.92036 136.0896 
L 375.326686 136.0896 
L 375.733012 142.0032 
L 376.139338 142.0032 
L 376.545664 136.0896 
L 377.358316 147.9168 
L 377.764642 142.0032 
L 378.170968 147.9168 
L 378.98362 147.9168 
L 379.389947 136.0896 
L 379.796273 142.0032 
L 380.202599 136.0896 
L 380.608925 147.9168 
L 381.015251 142.0032 
L 381.421577 147.9168 
L 381.827903 136.0896 
L 382.234229 136.0896 
L 382.640555 142.0032 
L 383.046881 142.0032 
L 383.453207 136.0896 
L 383.859534 142.0032 
L 384.26586 136.0896 
L 384.672186 142.0032 
L 385.078512 136.0896 
L 385.484838 136.0896 
L 385.891164 142.0032 
L 386.29749 136.0896 
L 386.703816 147.9168 
L 387.110142 136.0896 
L 387.516468 136.0896 
L 387.922794 147.9168 
L 388.32912 142.0032 
L 388.735447 147.9168 
L 389.141773 136.0896 
L 389.548099 147.9168 
L 389.954425 147.9168 
L 390.360751 153.8304 
L 390.767077 147.9168 
L 391.173403 147.9168 
L 391.579729 142.0032 
L 391.986055 142.0032 
L 392.392381 136.0896 
L 392.798707 136.0896 
L 393.205034 142.0032 
L 393.61136 142.0032 
L 394.017686 136.0896 
L 395.64299 136.0896 
L 396.049316 142.0032 
L 396.455642 142.0032 
L 396.861968 136.0896 
L 398.080947 136.0896 
L 398.487273 142.0032 
L 398.487273 142.0032 
" clip-path="url(#p7035878294)" style="fill: none; stroke: #ffa500; stroke-width: 1.5; stroke-linecap: square"/>
   </g>
   <g id="patch_3">
    <path d="M 57.6 307.584 
L 57.6 41.472 
" style="fill: none; stroke: #000000; stroke-width: 0.8; stroke-linejoin: miter; stroke-linecap: square"/>
   </g>
   <g id="patch_4">
    <path d="M 414.72 307.584 
L 414.72 41.472 
" style="fill: none; stroke: #000000; stroke-width: 0.8; stroke-linejoin: miter; stroke-linecap: square"/>
   </g>
   <g id="patch_5">
    <path d="M 57.6 307.584 
L 414.72 307.584 
" style="fill: none; stroke: #000000; stroke-width: 0.8; stroke-linejoin: miter; stroke-linecap: square"/>
   </g>
   <g id="patch_6">
    <path d="M 57.6 41.472 
L 414.72 41.472 
" style="fill: none; stroke: #000000; stroke-width: 0.8; stroke-linejoin: miter; stroke-linecap: square"/>
   </g>
   <g id="legend_1">
    <g id="patch_7">
     <path d="M 319.816875 93.506375 
L 407.72 93.506375 
Q 409.72 93.506375 409.72 91.506375 
L 409.72 48.472 
Q 409.72 46.472 407.72 46.472 
L 319.816875 46.472 
Q 317.816875 46.472 317.816875 48.472 
L 317.816875 91.506375 
Q 317.816875 93.506375 319.816875 93.506375 
z
" style="fill: #ffffff; opacity: 0.8; stroke: #cccccc; stroke-linejoin: miter"/>
    </g>
    <g id="line2d_23">
     <path d="M 321.816875 54.570438 
L 331.816875 54.570438 
L 341.816875 54.570438 
" style="fill: none; stroke: #0000ff; stroke-width: 1.5; stroke-linecap: square"/>
    </g>
    <g id="text_22">
     <!-- channel-37 -->
     <g transform="translate(349.816875 58.070438) scale(0.1 -0.1)">
      <defs>
       <path id="DejaVuSans-68" d="M 3513 2113 
L 3513 0 
L 2938 0 
L 2938 2094 
Q 2938 2591 2744 2837 
Q 2550 3084 2163 3084 
Q 1697 3084 1428 2787 
Q 1159 2491 1159 1978 
L 1159 0 
L 581 0 
L 581 4863 
L 1159 4863 
L 1159 2956 
Q 1366 3272 1645 3428 
Q 1925 3584 2291 3584 
Q 2894 3584 3203 3211 
Q 3513 2838 3513 2113 
z
" transform="scale(0.015625)"/>
       <path id="DejaVuSans-6e" d="M 3513 2113 
L 3513 0 
L 2938 0 
L 2938 2094 
Q 2938 2591 2744 2837 
Q 2550 3084 2163 3084 
Q 1697 3084 1428 2787 
Q 1159 2491 1159 1978 
L 1159 0 
L 581 0 
L 581 3500 
L 1159 3500 
L 1159 2956 
Q 1366 3272 1645 3428 
Q 1925 3584 2291 3584 
Q 2894 3584 3203 3211 
Q 3513 2838 3513 2113 
z
" transform="scale(0.015625)"/>
       <path id="DejaVuSans-6c" d="M 603 4863 
L 1178 4863 
L 1178 0 
L 603 0 
L 603 4863 
z
" transform="scale(0.015625)"/>
       <path id="DejaVuSans-2d" d="M 313 2009 
L 1997 2009 
L 1997 1497 
L 313 1497 
L 313 2009 
z
" transform="scale(0.015625)"/>
      </defs>
      <use xlink:href="#DejaVuSans-63"/>
      <use xlink:href="#DejaVuSans-68" x="54.980469"/>
      <use xlink:href="#DejaVuSans-61" x="118.359375"/>
      <use xlink:href="#DejaVuSans-6e" x="179.638672"/>
      <use xlink:href="#DejaVuSans-6e" x="243.017578"/>
      <use xlink:href="#DejaVuSans-65" x="306.396484"/>
      <use xlink:href="#DejaVuSans-6c" x="367.919922"/>
      <use xlink:href="#DejaVuSans-2d" x="395.703125"/>
      <use xlink:href="#DejaVuSans-33" x="431.787109"/>
      <use xlink:href="#DejaVuSans-37" x="495.410156"/>
     </g>
    </g>
    <g id="line2d_24">
     <path d="M 321.816875 69.248563 
L 331.816875 69.248563 
L 341.816875 69.248563 
" style="fill: none; stroke: #008000; stroke-width: 1.5; stroke-linecap: square"/>
    </g>
    <g id="text_23">
     <!-- channel-38 -->
     <g transform="translate(349.816875 72.748563) scale(0.1 -0.1)">
      <use xlink:href="#DejaVuSans-63"/>
      <use xlink:href="#DejaVuSans-68" x="54.980469"/>
      <use xlink:href="#DejaVuSans-61" x="118.359375"/>
      <use xlink:href="#DejaVuSans-6e" x="179.638672"/>
      <use xlink:href="#DejaVuSans-6e" x="243.017578"/>
      <use xlink:href="#DejaVuSans-65" x="306.396484"/>
      <use xlink:href="#DejaVuSans-6c" x="367.919922"/>
      <use xlink:href="#DejaVuSans-2d" x="395.703125"/>
      <use xlink:href="#DejaVuSans-33" x="431.787109"/>
      <use xlink:href="#DejaVuSans-38" x="495.410156"/>
     </g>
    </g>
    <g id="line2d_25">
     <path d="M 321.816875 83.926688 
L 331.816875 83.926688 
L 341.816875 83.926688 
" style="fill: none; stroke: #ffa500; stroke-width: 1.5; stroke-linecap: square"/>
    </g>
    <g id="text_24">
     <!-- channel-39 -->
     <g transform="translate(349.816875 87.426688) scale(0.1 -0.1)">
      <defs>
       <path id="DejaVuSans-39" d="M 703 97 
L 703 672 
Q 941 559 1184 500 
Q 1428 441 1663 441 
Q 2288 441 2617 861 
Q 2947 1281 2994 2138 
Q 2813 1869 2534 1725 
Q 2256 1581 1919 1581 
Q 1219 1581 811 2004 
Q 403 2428 403 3163 
Q 403 3881 828 4315 
Q 1253 4750 1959 4750 
Q 2769 4750 3195 4129 
Q 3622 3509 3622 2328 
Q 3622 1225 3098 567 
Q 2575 -91 1691 -91 
Q 1453 -91 1209 -44 
Q 966 3 703 97 
z
M 1959 2075 
Q 2384 2075 2632 2365 
Q 2881 2656 2881 3163 
Q 2881 3666 2632 3958 
Q 2384 4250 1959 4250 
Q 1534 4250 1286 3958 
Q 1038 3666 1038 3163 
Q 1038 2656 1286 2365 
Q 1534 2075 1959 2075 
z
" transform="scale(0.015625)"/>
      </defs>
      <use xlink:href="#DejaVuSans-63"/>
      <use xlink:href="#DejaVuSans-68" x="54.980469"/>
      <use xlink:href="#DejaVuSans-61" x="118.359375"/>
      <use xlink:href="#DejaVuSans-6e" x="179.638672"/>
      <use xlink:href="#DejaVuSans-6e" x="243.017578"/>
      <use xlink:href="#DejaVuSans-65" x="306.396484"/>
      <use xlink:href="#DejaVuSans-6c" x="367.919922"/>
      <use xlink:href="#DejaVuSans-2d" x="395.703125"/>
      <use xlink:href="#DejaVuSans-33" x="431.787109"/>
      <use xlink:href="#DejaVuSans-39" x="495.410156"/>
     </g>
    </g>
   </g>
  </g>
 </g>
 <defs>
  <clipPath id="p7035878294">
   <rect x="57.6" y="41.472" width="357.12" height="266.112"/>
  </clipPath>
 </defs>
</svg>
